<svg id="Layer_1" data-name="Layer 1" xmlns="http://www.w3.org/2000/svg" viewBox="0 0 221.11 139.97"><defs><style>.cls-1,.cls-6{fill:#bab0ac;}.cls-12,.cls-13,.cls-14,.cls-15,.cls-16,.cls-2,.cls-3,.cls-5{fill:none;}.cls-10,.cls-12,.cls-13,.cls-14,.cls-15,.cls-16,.cls-2,.cls-3,.cls-4,.cls-5,.cls-6,.cls-7,.cls-9{stroke:#231f20;}.cls-10,.cls-16,.cls-2,.cls-3,.cls-6,.cls-7,.cls-8,.cls-9{stroke-linecap:round;}.cls-10,.cls-16,.cls-2,.cls-3,.cls-4,.cls-6,.cls-7,.cls-8,.cls-9{stroke-linejoin:round;}.cls-3{stroke-width:0.75px;}.cls-10,.cls-11,.cls-4{fill:#9c755f;}.cls-10,.cls-16,.cls-4,.cls-6,.cls-7,.cls-8,.cls-9{stroke-width:0.5px;}.cls-12,.cls-13,.cls-14,.cls-15,.cls-5{stroke-miterlimit:10;stroke-width:0.25px;}.cls-7{fill:#4e7aa7;}.cls-8,.cls-9{fill:#f1d591;}.cls-8{stroke:#000;}.cls-12{stroke-dasharray:0.99 0.99;}.cls-13{stroke-dasharray:1.01 1.01;}.cls-14{stroke-dasharray:1 1;}.cls-15{stroke-dasharray:1.01 1.01;}</style></defs><title>file-drawer-logo</title><polyline class="cls-1" points="220.8 53.72 216.07 50.17 210.95 50.52 210.91 50.37 144.25 0.38 0.25 9.38 0.25 78.85 72.25 132.85 72.25 136.2 77.14 139.72 220.86 130.74 220.86 53.85"/><path class="cls-2" d="M387.77,377.88" transform="translate(-195.29 -326.88)"/><path class="cls-2" d="M254.39,377.88" transform="translate(-195.29 -326.88)"/><line class="cls-3" x1="210.91" y1="50.37" x2="144.25" y2="0.38"/><line class="cls-2" x1="208.74" y1="50.41" x2="144.25" y2="2.04"/><polyline class="cls-4" points="0.25 9.38 144.25 0.38 144.25 2.01 4.49 10.74 72.25 61.07 72.25 59.19 72.25 132.85 0.25 78.85 0.25 9.38 72.25 63.38"/><path class="cls-5" d="M368,415.64" transform="translate(-195.29 -326.88)"/><polyline class="cls-6" points="13.38 17.11 13.38 16.51 13.38 6.79 13.38 6.71 59.22 4.08 61.21 7.16 155.56 1.64 155.54 1.69 155.54 8.64"/><path class="cls-5" d="M321.79,418.35" transform="translate(-195.29 -326.88)"/><polyline class="cls-6" points="20.07 21.85 20.07 21.25 20.07 11.52 20.07 11.45 65.91 8.82 67.9 11.89 162.25 6.37 162.24 6.42 162.24 13.38"/><polyline class="cls-6" points="170.58 26.75 170.58 12.94 170.59 12.89 76.24 18.41 74.25 15.34 28.41 17.97 28.41 18.04 28.41 27.77 28.41 28.37"/><polyline class="cls-6" points="178.42 32.3 178.42 18.5 178.44 18.45 84.09 23.96 82.09 20.89 36.25 23.52 36.25 23.59 36.25 33.32 36.25 33.92"/><polyline class="cls-7" points="59.1 51.3 50.3 44.74 50.3 44.14 50.3 34.41 50.3 34.34 96.14 31.71 98.13 34.78 192.48 29.27 192.47 29.32 192.47 43.12"/><polyline class="cls-8" points="201.28 42.54 201.28 36.42 106.93 41.95 104.94 38.87 59.1 41.5 59.1 41.58 59.1 51.3 59.1 51.3 67.09 57.11 67.09 50.39 201.27 42.54"/><polyline class="cls-9" points="112.86 45.01 114.55 47.61 209.27 42.07 114.55 47.61 112.86 45.01 67.09 47.68 67.09 57.11 72.25 61.07 72.25 59.19 209.26 50.62 209.27 42.07"/><polyline class="cls-10" points="77.14 62.83 220.86 53.85 220.86 130.74 77.14 139.72"/><polyline class="cls-11" points="217.39 127.36 217.55 57.88 81.03 65.89 80.86 135.73 217.38 127.36 217.38 127.36"/><line class="cls-5" x1="217.39" y1="127.36" x2="217.39" y2="126.86"/><line class="cls-12" x1="217.39" y1="125.87" x2="217.55" y2="58.88"/><polyline class="cls-5" points="217.55 58.38 217.55 57.88 217.06 57.91"/><line class="cls-13" x1="216.05" y1="57.97" x2="82.03" y2="65.83"/><path class="cls-5" d="M276.82,392.75l-.5,0v.49" transform="translate(-195.29 -326.88)"/><path class="cls-14" d="M276.31,394.26c0,9.34-.15,59.62-.17,67.35" transform="translate(-195.29 -326.88)"/><path class="cls-5" d="M276.14,462.12v.49l.5,0" transform="translate(-195.29 -326.88)"/><line class="cls-15" x1="82.36" y1="135.64" x2="216.38" y2="127.43"/><polyline class="cls-5" points="216.88 127.39 217.38 127.36 217.38 127.36"/><polyline class="cls-10" points="72.25 59.31 77.14 62.83 77.14 139.72 72.25 136.2 72.25 59.19"/><polyline class="cls-5" points="126.51 91.46 172.67 88.75 172.67 69.35 126.51 72.06 126.51 91.58"/><polyline class="cls-10" points="77.14 62.83 220.86 53.85 220.8 53.72 216.07 50.17 215.97 50.2 72.25 59.19"/><line class="cls-16" x1="77.14" y1="62.83" x2="77.14" y2="139.72"/><polyline class="cls-6" points="177.38 98.57 177.38 95.76 177.43 95.76 180.91 98.27 180.91 98.36 125.53 101.67 125.52 106.47 125.53 101.73 122.08 99.27 122.11 104.01 125.52 106.47 180.9 103.16 180.91 98.27"/></svg>